name ./resultDataOpenSim/trcMotMarkerGrf/sub09/grf-15-08.mot
datacolumns 19
datarows 17
range 0.46400000 0.52800000
endheader

                time	     ground_force_vx	     ground_force_vy	     ground_force_vz	     ground_force_px	     ground_force_py	     ground_force_pz	   l_ground_force_vx	   l_ground_force_vy	   l_ground_force_vz	   l_ground_force_px	   l_ground_force_py	   l_ground_force_pz	     ground_torque_x	     ground_torque_y	     ground_torque_z	   l_ground_torque_x	   l_ground_torque_y	   l_ground_torque_z	
          0.46400000	         37.24349533	        412.08298572	        -27.82668531	         -0.69664148	          0.00000000	          0.09180194	          0.00000000	          0.00000000	          0.00000000	          0.00000000	          0.00000000	          0.00000000	          0.00000000	          0.84462491	          0.00000000	          0.00000000	          0.00000000	          0.00000000	
          0.46800000	         42.44350202	        420.28015491	        -29.57589554	         -0.69661511	          0.00000000	          0.09192310	          0.00000000	          0.00000000	          0.00000000	          0.00000000	          0.00000000	          0.00000000	          0.00000000	          0.91585387	          0.00000000	          0.00000000	          0.00000000	          0.00000000	
          0.47200000	         47.47160793	        429.44559929	        -30.61320116	         -0.69646863	          0.00000000	          0.09194031	          0.00000000	          0.00000000	          0.00000000	          0.00000000	          0.00000000	          0.00000000	          0.00000000	          1.10108698	          0.00000000	          0.00000000	          0.00000000	          0.00000000	
          0.47600000	         51.95815061	        439.73513706	        -30.93003976	         -0.69617652	          0.00000000	          0.09182728	          0.00000000	          0.00000000	          0.00000000	          0.00000000	          0.00000000	          0.00000000	          0.00000000	          1.40428818	          0.00000000	          0.00000000	          0.00000000	          0.00000000	
          0.48000000	         55.66055271	        451.26206037	        -30.62831806	         -0.69578137	          0.00000000	          0.09156105	          0.00000000	          0.00000000	          0.00000000	          0.00000000	          0.00000000	          0.00000000	          0.00000000	          1.80984452	          0.00000000	          0.00000000	          0.00000000	          0.00000000	
          0.48400000	         58.54500507	        463.93840276	        -29.91028072	         -0.69532028	          0.00000000	          0.09116465	          0.00000000	          0.00000000	          0.00000000	          0.00000000	          0.00000000	          0.00000000	          0.00000000	          2.28538055	          0.00000000	          0.00000000	          0.00000000	          0.00000000	
          0.48800000	         60.77675065	        477.46626480	        -29.02480202	         -0.69469715	          0.00000000	          0.09071394	          0.00000000	          0.00000000	          0.00000000	          0.00000000	          0.00000000	          0.00000000	          0.00000000	          2.78854565	          0.00000000	          0.00000000	          0.00000000	          0.00000000	
          0.49200000	         62.64946292	        491.56342702	        -28.19277867	         -0.69378864	          0.00000000	          0.09028112	          0.00000000	          0.00000000	          0.00000000	          0.00000000	          0.00000000	          0.00000000	          0.00000000	          3.27617757	          0.00000000	          0.00000000	          0.00000000	          0.00000000	
          0.49600000	         64.53489572	        506.18586374	        -27.55438843	         -0.69266729	          0.00000000	          0.08985883	          0.00000000	          0.00000000	          0.00000000	          0.00000000	          0.00000000	          0.00000000	          0.00000000	          3.71333968	          0.00000000	          0.00000000	          0.00000000	          0.00000000	
          0.50000000	         66.81199526	        521.47733801	        -27.15864505	         -0.69158766	          0.00000000	          0.08938311	          0.00000000	          0.00000000	          0.00000000	          0.00000000	          0.00000000	          0.00000000	          0.00000000	          4.07979643	          0.00000000	          0.00000000	          0.00000000	          0.00000000	
          0.50400000	         69.72658600	        537.50249302	        -26.97255986	         -0.69075801	          0.00000000	          0.08882174	          0.00000000	          0.00000000	          0.00000000	          0.00000000	          0.00000000	          0.00000000	          0.00000000	          4.37248240	          0.00000000	          0.00000000	          0.00000000	          0.00000000	
          0.50800000	         73.29117936	        554.05362245	        -26.89120891	         -0.69006321	          0.00000000	          0.08822482	          0.00000000	          0.00000000	          0.00000000	          0.00000000	          0.00000000	          0.00000000	          0.00000000	          4.60370387	          0.00000000	          0.00000000	          0.00000000	          0.00000000	
          0.51200000	         77.32793532	        570.73521755	        -26.76822484	         -0.68926560	          0.00000000	          0.08765864	          0.00000000	          0.00000000	          0.00000000	          0.00000000	          0.00000000	          0.00000000	          0.00000000	          4.79571265	          0.00000000	          0.00000000	          0.00000000	          0.00000000	
          0.51600000	         81.59118122	        587.25239619	        -26.46510161	         -0.68826149	          0.00000000	          0.08715161	          0.00000000	          0.00000000	          0.00000000	          0.00000000	          0.00000000	          0.00000000	          0.00000000	          4.97298279	          0.00000000	          0.00000000	          0.00000000	          0.00000000	
          0.52000000	         85.85879541	        603.58133182	        -25.89570547	         -0.68716165	          0.00000000	          0.08666334	          0.00000000	          0.00000000	          0.00000000	          0.00000000	          0.00000000	          0.00000000	          0.00000000	          5.15402258	          0.00000000	          0.00000000	          0.00000000	          0.00000000	
          0.52400000	         89.97092356	        619.80900616	        -25.05911920	         -0.68611294	          0.00000000	          0.08614334	          0.00000000	          0.00000000	          0.00000000	          0.00000000	          0.00000000	          0.00000000	          0.00000000	          5.34480801	          0.00000000	          0.00000000	          0.00000000	          0.00000000	
          0.52800000	         93.84761764	        635.85891435	        -24.04749054	         -0.68510807	          0.00000000	          0.08560050	          0.00000000	          0.00000000	          0.00000000	          0.00000000	          0.00000000	          0.00000000	          0.00000000	          5.53577172	          0.00000000	          0.00000000	          0.00000000	          0.00000000	
